{"title":"BigButtsLikeItBig - Rachel Roxx DP","uid":11097038,"size":165364619,"categoryP":"porn","categoryS":"movie_clips","magnet":"?xt=urn:btih:9626280cbdaf577aeebd2832d12514ed5864ab95&amp;dn=BigButtsLikeItBig+-+Rachel+Roxx+DP&amp;tr=udp%3A%2F%2Ftracker.openbittorrent.com%3A80&amp;tr=udp%3A%2F%2Fopen.demonii.com%3A1337&amp;tr=udp%3A%2F%2Ftracker.coppersurfer.tk%3A6969&amp;tr=udp%3A%2F%2Fexodus.desync.com%3A6969","seeders":0,"leechers":0,"uploader":"supertongo","files":1,"time":1411609797,"description":"BigButtsLikeItBig - Rachel Roxx DP video in ipod/psp/mobile compatible resolution\n\n\n:::Media info:::\n\n\nGeneral\nFormat                         : MPEG-4\nFormat profile                 : Base Media / Version 2\nCodec ID                       : mp42\nFile size                      : 158 MiB\nDuration                       : 39mn 32s\nOverall bit rate mode          : Variable\nOverall bit rate               : 558 Kbps\nEncoded date                   : UTC 2011-08-11 02:52:28\nTagged date                    : UTC 2011-08-11 03:14:41\nWriting application            : HandBrake 0.9.4 2009112300\n\nVideo\nID                             : 1\nFormat                         : AVC\nFormat/Info                    : Advanced Video Codec\nFormat profile                 : &lt;a class=&quot;__cf_email__&quot; href=&quot;/cdn-cgi/l/email-protection&quot; data-cfemail=&quot;c88aa9bbada4a1a6ad8884fbe6f8&quot;&gt;[email&amp;#160;protected]&lt;/a&gt;&lt;script data-cfhash='f9e31' type=&quot;text/javascript&quot;&gt;\n/* &lt;![CDATA[ */!function(){try{var t=&quot;currentScript&quot;in document?document.currentScript:function(){for(var t=document.getElementsByTagName(&quot;script&quot;),e=t.length;e--;)if(t[e].getAttribute(&quot;data-cfhash&quot;))return t[e]}();if(t&amp;&amp;t.previousSibling){var e,r,n,i,c=t.previousSibling,a=c.getAttribute(&quot;data-cfemail&quot;);if(a){for(e=&quot;&quot;,r=parseInt(a.substr(0,2),16),n=2;a.length-n;n+=2)i=parseInt(a.substr(n,2),16)^r,e+=String.fromCharCode(i);e=document.createTextNode(e),c.parentNode.replaceChild(e,c)}t.parentNode.removeChild(t);}}catch(u){}}()/* ]]&gt; */&lt;/script&gt;\nFormat settings, CABAC         : No\nFormat settings, ReFrames      : 2 frames\nCodec ID                       : avc1\nCodec ID/Info                  : Advanced Video Coding\nDuration                       : 39mn 32s\nDuration_FirstFrame            : 67ms\nBit rate                       : 398 Kbps\nWidth                          : 480 pixels\nHeight                         : 272 pixels\nDisplay aspect ratio           : 16:9\nFrame rate mode                : Constant\nFrame rate                     : 29.970 fps\nColor space                    : YUV\nChroma subsampling             : 4:2:0\nBit depth                      : 8 bits\nScan type                      : Progressive\nBits/(Pixel*Frame)             : 0.102\nStream size                    : 113 MiB (71%)\n\n\nAudio\nID                             : 2\nFormat                         : AAC\nFormat/Info                    : Advanced Audio Codec\nFormat profile                 : LC\nCodec ID                       : 40\nDuration                       : 39mn 32s\nBit rate mode                  : Variable\nBit rate                       : 128 Kbps\nMaximum bit rate               : 169 Kbps\nChannel(s)                     : 2 channels\nChannel positions              : Front: L R\nSampling rate                  : 48.0 KHz\nCompression mode               : Lossy\nStream size                    : 36.2 MiB (23%)\nLanguage                       : English\n\n &lt;a href=&quot;\nhttp://bayimg.com/bAAmGAaGj&quot; rel=&quot;nofollow&quot; target=&quot;_NEW&quot;&gt;\nhttp://bayimg.com/bAAmGAaGj&lt;/a&gt;\n","torrent":{"xt":"urn:btih:9626280cbdaf577aeebd2832d12514ed5864ab95","amp;dn":"BigButtsLikeItBig+-+Rachel+Roxx+DP","amp;tr":["udp%3A%2F%2Ftracker.openbittorrent.com%3A80","udp%3A%2F%2Fopen.demonii.com%3A1337","udp%3A%2F%2Ftracker.coppersurfer.tk%3A6969","udp%3A%2F%2Fexodus.desync.com%3A6969"],"infoHash":"9626280cbdaf577aeebd2832d12514ed5864ab95","infoHashBuffer":{"type":"Buffer","data":[150,38,40,12,189,175,87,122,238,189,40,50,209,37,20,237,88,100,171,149]},"announce":[],"urlList":[]}}